<mxfile host="app.diagrams.net" modified="2023-11-29T09:08:34.750Z" agent="Mozilla/5.0 (Windows NT 10.0; Win64; x64) AppleWebKit/537.36 (KHTML, like Gecko) Chrome/119.0.0.0 Safari/537.36" etag="eKaFii7j6Cv4ZNON9ANA" version="22.1.4" type="device">
  <diagram name="Страница — 1" id="rCo34V7c9WMxrhVv8G43">
    <mxGraphModel dx="3033" dy="2323" grid="1" gridSize="10" guides="1" tooltips="1" connect="1" arrows="1" fold="1" page="1" pageScale="1" pageWidth="827" pageHeight="1169" math="0" shadow="0">
      <root>
        <mxCell id="0" />
        <mxCell id="1" parent="0" />
        <mxCell id="O2XYGsJC51HNCYNZoQb--43" value="" style="rounded=0;whiteSpace=wrap;html=1;fillColor=#f8cecc;strokeColor=#b85450;movable=1;resizable=1;rotatable=1;deletable=1;editable=1;locked=0;connectable=1;" vertex="1" parent="1">
          <mxGeometry x="70" y="670" width="580" height="200" as="geometry" />
        </mxCell>
        <mxCell id="O2XYGsJC51HNCYNZoQb--32" value="" style="rounded=0;whiteSpace=wrap;html=1;fillColor=#f8cecc;strokeColor=#b85450;movable=1;resizable=1;rotatable=1;deletable=1;editable=1;locked=0;connectable=1;" vertex="1" parent="1">
          <mxGeometry x="70" y="440" width="580" height="220" as="geometry" />
        </mxCell>
        <mxCell id="O2XYGsJC51HNCYNZoQb--14" value="" style="rounded=0;whiteSpace=wrap;html=1;fillColor=#dae8fc;strokeColor=#6c8ebf;movable=1;resizable=1;rotatable=1;deletable=1;editable=1;locked=0;connectable=1;" vertex="1" parent="1">
          <mxGeometry x="70" y="140" width="710" height="290" as="geometry" />
        </mxCell>
        <mxCell id="O2XYGsJC51HNCYNZoQb--13" value="" style="rounded=0;whiteSpace=wrap;html=1;fillColor=#dae8fc;strokeColor=#6c8ebf;movable=0;resizable=0;rotatable=0;deletable=0;editable=0;locked=1;connectable=0;" vertex="1" parent="1">
          <mxGeometry x="70" y="-40" width="580" height="170" as="geometry" />
        </mxCell>
        <mxCell id="O2XYGsJC51HNCYNZoQb--2" value="&lt;font style=&quot;font-size: 16px;&quot;&gt;Фрезерный&lt;/font&gt;" style="rounded=0;whiteSpace=wrap;html=1;" vertex="1" parent="1">
          <mxGeometry x="280" y="60" width="140" height="30" as="geometry" />
        </mxCell>
        <mxCell id="O2XYGsJC51HNCYNZoQb--18" style="edgeStyle=orthogonalEdgeStyle;rounded=0;orthogonalLoop=1;jettySize=auto;html=1;exitX=1;exitY=0.5;exitDx=0;exitDy=0;" edge="1" parent="1" source="O2XYGsJC51HNCYNZoQb--3" target="O2XYGsJC51HNCYNZoQb--5">
          <mxGeometry relative="1" as="geometry" />
        </mxCell>
        <mxCell id="O2XYGsJC51HNCYNZoQb--19" style="edgeStyle=orthogonalEdgeStyle;rounded=0;orthogonalLoop=1;jettySize=auto;html=1;exitX=1;exitY=0.5;exitDx=0;exitDy=0;entryX=0;entryY=0.5;entryDx=0;entryDy=0;" edge="1" parent="1" source="O2XYGsJC51HNCYNZoQb--3" target="O2XYGsJC51HNCYNZoQb--7">
          <mxGeometry relative="1" as="geometry" />
        </mxCell>
        <mxCell id="O2XYGsJC51HNCYNZoQb--20" style="edgeStyle=orthogonalEdgeStyle;rounded=0;orthogonalLoop=1;jettySize=auto;html=1;exitX=1;exitY=0.5;exitDx=0;exitDy=0;entryX=0;entryY=0.5;entryDx=0;entryDy=0;" edge="1" parent="1" source="O2XYGsJC51HNCYNZoQb--3" target="O2XYGsJC51HNCYNZoQb--2">
          <mxGeometry relative="1" as="geometry" />
        </mxCell>
        <mxCell id="O2XYGsJC51HNCYNZoQb--31" style="edgeStyle=orthogonalEdgeStyle;rounded=0;orthogonalLoop=1;jettySize=auto;html=1;entryX=0.5;entryY=0;entryDx=0;entryDy=0;exitX=0.5;exitY=1;exitDx=0;exitDy=0;" edge="1" parent="1" source="O2XYGsJC51HNCYNZoQb--2" target="O2XYGsJC51HNCYNZoQb--12">
          <mxGeometry relative="1" as="geometry" />
        </mxCell>
        <mxCell id="O2XYGsJC51HNCYNZoQb--3" value="&lt;font style=&quot;font-size: 16px;&quot;&gt;Класс инструмента&lt;/font&gt;" style="rounded=0;whiteSpace=wrap;html=1;movable=1;resizable=1;rotatable=1;deletable=1;editable=1;locked=0;connectable=1;" vertex="1" parent="1">
          <mxGeometry x="90" y="-25" width="140" height="60" as="geometry" />
        </mxCell>
        <mxCell id="O2XYGsJC51HNCYNZoQb--69" value="" style="edgeStyle=orthogonalEdgeStyle;rounded=0;orthogonalLoop=1;jettySize=auto;html=1;" edge="1" parent="1" source="O2XYGsJC51HNCYNZoQb--5" target="O2XYGsJC51HNCYNZoQb--68">
          <mxGeometry relative="1" as="geometry" />
        </mxCell>
        <mxCell id="O2XYGsJC51HNCYNZoQb--5" value="&lt;font style=&quot;font-size: 16px;&quot;&gt;Токарный&lt;/font&gt;" style="rounded=0;whiteSpace=wrap;html=1;" vertex="1" parent="1">
          <mxGeometry x="280" y="-20" width="140" height="30" as="geometry" />
        </mxCell>
        <mxCell id="O2XYGsJC51HNCYNZoQb--73" style="edgeStyle=orthogonalEdgeStyle;rounded=0;orthogonalLoop=1;jettySize=auto;html=1;exitX=1;exitY=0.5;exitDx=0;exitDy=0;entryX=0;entryY=0.5;entryDx=0;entryDy=0;" edge="1" parent="1" source="O2XYGsJC51HNCYNZoQb--7" target="O2XYGsJC51HNCYNZoQb--72">
          <mxGeometry relative="1" as="geometry" />
        </mxCell>
        <mxCell id="O2XYGsJC51HNCYNZoQb--7" value="&lt;font style=&quot;font-size: 16px;&quot;&gt;Универсальный&lt;/font&gt;" style="rounded=0;whiteSpace=wrap;html=1;" vertex="1" parent="1">
          <mxGeometry x="280" y="20" width="140" height="30" as="geometry" />
        </mxCell>
        <mxCell id="O2XYGsJC51HNCYNZoQb--21" style="edgeStyle=orthogonalEdgeStyle;rounded=0;orthogonalLoop=1;jettySize=auto;html=1;exitX=1;exitY=0.5;exitDx=0;exitDy=0;entryX=0;entryY=0.5;entryDx=0;entryDy=0;" edge="1" parent="1" source="O2XYGsJC51HNCYNZoQb--12" target="O2XYGsJC51HNCYNZoQb--16">
          <mxGeometry relative="1" as="geometry" />
        </mxCell>
        <mxCell id="O2XYGsJC51HNCYNZoQb--22" style="edgeStyle=orthogonalEdgeStyle;rounded=0;orthogonalLoop=1;jettySize=auto;html=1;exitX=1;exitY=0.5;exitDx=0;exitDy=0;entryX=0;entryY=0.5;entryDx=0;entryDy=0;" edge="1" parent="1" source="O2XYGsJC51HNCYNZoQb--12" target="O2XYGsJC51HNCYNZoQb--15">
          <mxGeometry relative="1" as="geometry" />
        </mxCell>
        <mxCell id="O2XYGsJC51HNCYNZoQb--27" style="edgeStyle=orthogonalEdgeStyle;rounded=0;orthogonalLoop=1;jettySize=auto;html=1;exitX=1;exitY=0.5;exitDx=0;exitDy=0;entryX=0;entryY=0.5;entryDx=0;entryDy=0;" edge="1" parent="1" source="O2XYGsJC51HNCYNZoQb--12" target="O2XYGsJC51HNCYNZoQb--24">
          <mxGeometry relative="1" as="geometry" />
        </mxCell>
        <mxCell id="O2XYGsJC51HNCYNZoQb--28" style="edgeStyle=orthogonalEdgeStyle;rounded=0;orthogonalLoop=1;jettySize=auto;html=1;exitX=1;exitY=0.5;exitDx=0;exitDy=0;entryX=0;entryY=0.5;entryDx=0;entryDy=0;" edge="1" parent="1" source="O2XYGsJC51HNCYNZoQb--12" target="O2XYGsJC51HNCYNZoQb--26">
          <mxGeometry relative="1" as="geometry" />
        </mxCell>
        <mxCell id="O2XYGsJC51HNCYNZoQb--29" style="edgeStyle=orthogonalEdgeStyle;rounded=0;orthogonalLoop=1;jettySize=auto;html=1;exitX=1;exitY=0.5;exitDx=0;exitDy=0;entryX=0;entryY=0.5;entryDx=0;entryDy=0;" edge="1" parent="1" source="O2XYGsJC51HNCYNZoQb--12" target="O2XYGsJC51HNCYNZoQb--25">
          <mxGeometry relative="1" as="geometry" />
        </mxCell>
        <mxCell id="O2XYGsJC51HNCYNZoQb--30" style="edgeStyle=orthogonalEdgeStyle;rounded=0;orthogonalLoop=1;jettySize=auto;html=1;exitX=1;exitY=0.5;exitDx=0;exitDy=0;entryX=0;entryY=0.5;entryDx=0;entryDy=0;" edge="1" parent="1" source="O2XYGsJC51HNCYNZoQb--12" target="O2XYGsJC51HNCYNZoQb--23">
          <mxGeometry relative="1" as="geometry" />
        </mxCell>
        <mxCell id="O2XYGsJC51HNCYNZoQb--12" value="&lt;font style=&quot;font-size: 16px;&quot;&gt;Тип&lt;/font&gt;" style="rounded=0;whiteSpace=wrap;html=1;movable=1;resizable=1;rotatable=1;deletable=1;editable=1;locked=0;connectable=1;" vertex="1" parent="1">
          <mxGeometry x="280" y="155" width="140" height="60" as="geometry" />
        </mxCell>
        <mxCell id="O2XYGsJC51HNCYNZoQb--15" value="&lt;font style=&quot;font-size: 16px;&quot;&gt;Радиусная фреза&lt;/font&gt;" style="rounded=0;whiteSpace=wrap;html=1;" vertex="1" parent="1">
          <mxGeometry x="480" y="210" width="140" height="30" as="geometry" />
        </mxCell>
        <mxCell id="O2XYGsJC51HNCYNZoQb--16" value="&lt;font style=&quot;font-size: 16px;&quot;&gt;Концевая фреза&lt;/font&gt;" style="rounded=0;whiteSpace=wrap;html=1;" vertex="1" parent="1">
          <mxGeometry x="480" y="170" width="140" height="30" as="geometry" />
        </mxCell>
        <mxCell id="O2XYGsJC51HNCYNZoQb--23" value="&lt;font style=&quot;font-size: 16px;&quot;&gt;Резьбовая фреза&lt;/font&gt;" style="rounded=0;whiteSpace=wrap;html=1;" vertex="1" parent="1">
          <mxGeometry x="480" y="250" width="140" height="30" as="geometry" />
        </mxCell>
        <mxCell id="O2XYGsJC51HNCYNZoQb--24" value="&lt;font style=&quot;font-size: 16px;&quot;&gt;Фасочная фреза&lt;/font&gt;" style="rounded=0;whiteSpace=wrap;html=1;" vertex="1" parent="1">
          <mxGeometry x="480" y="290" width="140" height="30" as="geometry" />
        </mxCell>
        <mxCell id="O2XYGsJC51HNCYNZoQb--102" style="edgeStyle=orthogonalEdgeStyle;rounded=0;orthogonalLoop=1;jettySize=auto;html=1;exitX=1;exitY=0.5;exitDx=0;exitDy=0;entryX=0;entryY=0.5;entryDx=0;entryDy=0;" edge="1" parent="1" source="O2XYGsJC51HNCYNZoQb--25" target="O2XYGsJC51HNCYNZoQb--101">
          <mxGeometry relative="1" as="geometry" />
        </mxCell>
        <mxCell id="O2XYGsJC51HNCYNZoQb--25" value="&lt;font style=&quot;font-size: 16px;&quot;&gt;Корпусная фреза&lt;/font&gt;" style="rounded=0;whiteSpace=wrap;html=1;" vertex="1" parent="1">
          <mxGeometry x="480" y="370" width="140" height="30" as="geometry" />
        </mxCell>
        <mxCell id="O2XYGsJC51HNCYNZoQb--26" value="&lt;font style=&quot;font-size: 16px;&quot;&gt;Фасонная фреза&lt;/font&gt;" style="rounded=0;whiteSpace=wrap;html=1;" vertex="1" parent="1">
          <mxGeometry x="480" y="330" width="140" height="30" as="geometry" />
        </mxCell>
        <mxCell id="O2XYGsJC51HNCYNZoQb--36" style="edgeStyle=orthogonalEdgeStyle;rounded=0;orthogonalLoop=1;jettySize=auto;html=1;" edge="1" parent="1" source="O2XYGsJC51HNCYNZoQb--33" target="O2XYGsJC51HNCYNZoQb--35">
          <mxGeometry relative="1" as="geometry" />
        </mxCell>
        <mxCell id="O2XYGsJC51HNCYNZoQb--40" style="edgeStyle=orthogonalEdgeStyle;rounded=0;orthogonalLoop=1;jettySize=auto;html=1;exitX=1;exitY=0.5;exitDx=0;exitDy=0;entryX=0;entryY=0.5;entryDx=0;entryDy=0;" edge="1" parent="1" source="O2XYGsJC51HNCYNZoQb--33" target="O2XYGsJC51HNCYNZoQb--39">
          <mxGeometry relative="1" as="geometry" />
        </mxCell>
        <mxCell id="O2XYGsJC51HNCYNZoQb--41" style="edgeStyle=orthogonalEdgeStyle;rounded=0;orthogonalLoop=1;jettySize=auto;html=1;exitX=1;exitY=0.5;exitDx=0;exitDy=0;entryX=0;entryY=0.5;entryDx=0;entryDy=0;" edge="1" parent="1" source="O2XYGsJC51HNCYNZoQb--33" target="O2XYGsJC51HNCYNZoQb--38">
          <mxGeometry relative="1" as="geometry" />
        </mxCell>
        <mxCell id="O2XYGsJC51HNCYNZoQb--42" style="edgeStyle=orthogonalEdgeStyle;rounded=0;orthogonalLoop=1;jettySize=auto;html=1;exitX=1;exitY=0.5;exitDx=0;exitDy=0;entryX=0;entryY=0.5;entryDx=0;entryDy=0;" edge="1" parent="1" source="O2XYGsJC51HNCYNZoQb--33" target="O2XYGsJC51HNCYNZoQb--37">
          <mxGeometry relative="1" as="geometry" />
        </mxCell>
        <mxCell id="O2XYGsJC51HNCYNZoQb--54" style="edgeStyle=orthogonalEdgeStyle;rounded=0;orthogonalLoop=1;jettySize=auto;html=1;exitX=0.5;exitY=1;exitDx=0;exitDy=0;" edge="1" parent="1" source="O2XYGsJC51HNCYNZoQb--33" target="O2XYGsJC51HNCYNZoQb--50">
          <mxGeometry relative="1" as="geometry" />
        </mxCell>
        <mxCell id="O2XYGsJC51HNCYNZoQb--33" value="&lt;font style=&quot;font-size: 16px;&quot;&gt;Применяемость&lt;/font&gt;" style="rounded=0;whiteSpace=wrap;html=1;movable=1;resizable=1;rotatable=1;deletable=1;editable=1;locked=0;connectable=1;" vertex="1" parent="1">
          <mxGeometry x="90" y="460" width="140" height="60" as="geometry" />
        </mxCell>
        <mxCell id="O2XYGsJC51HNCYNZoQb--35" value="&lt;font style=&quot;font-size: 16px;&quot;&gt;Сталь&lt;/font&gt;" style="rounded=0;whiteSpace=wrap;html=1;" vertex="1" parent="1">
          <mxGeometry x="450" y="475" width="170" height="30" as="geometry" />
        </mxCell>
        <mxCell id="O2XYGsJC51HNCYNZoQb--37" value="&lt;font style=&quot;font-size: 16px;&quot;&gt;Прочее&lt;/font&gt;" style="rounded=0;whiteSpace=wrap;html=1;" vertex="1" parent="1">
          <mxGeometry x="450" y="600" width="170" height="30" as="geometry" />
        </mxCell>
        <mxCell id="O2XYGsJC51HNCYNZoQb--38" value="&lt;font style=&quot;font-size: 16px;&quot;&gt;Алюминий&lt;/font&gt;" style="rounded=0;whiteSpace=wrap;html=1;" vertex="1" parent="1">
          <mxGeometry x="450" y="555" width="170" height="30" as="geometry" />
        </mxCell>
        <mxCell id="O2XYGsJC51HNCYNZoQb--39" value="&lt;font style=&quot;font-size: 16px;&quot;&gt;Нержавеющая сталь&lt;/font&gt;" style="rounded=0;whiteSpace=wrap;html=1;" vertex="1" parent="1">
          <mxGeometry x="450" y="515" width="170" height="30" as="geometry" />
        </mxCell>
        <mxCell id="O2XYGsJC51HNCYNZoQb--44" value="&lt;font style=&quot;font-size: 16px;&quot;&gt;Номинальный диаметр&lt;/font&gt;" style="rounded=0;whiteSpace=wrap;html=1;" vertex="1" parent="1">
          <mxGeometry x="420" y="690" width="200" height="30" as="geometry" />
        </mxCell>
        <mxCell id="O2XYGsJC51HNCYNZoQb--45" value="&lt;font style=&quot;font-size: 16px;&quot;&gt;Длинна рабочей части&lt;/font&gt;" style="rounded=0;whiteSpace=wrap;html=1;" vertex="1" parent="1">
          <mxGeometry x="420" y="815" width="200" height="30" as="geometry" />
        </mxCell>
        <mxCell id="O2XYGsJC51HNCYNZoQb--46" value="&lt;font style=&quot;font-size: 16px;&quot;&gt;Общая длинна&lt;/font&gt;" style="rounded=0;whiteSpace=wrap;html=1;" vertex="1" parent="1">
          <mxGeometry x="420" y="770" width="200" height="30" as="geometry" />
        </mxCell>
        <mxCell id="O2XYGsJC51HNCYNZoQb--47" value="&lt;font style=&quot;font-size: 16px;&quot;&gt;Диаметр хвостовика&lt;/font&gt;" style="rounded=0;whiteSpace=wrap;html=1;" vertex="1" parent="1">
          <mxGeometry x="420" y="730" width="200" height="30" as="geometry" />
        </mxCell>
        <mxCell id="O2XYGsJC51HNCYNZoQb--53" style="edgeStyle=orthogonalEdgeStyle;rounded=0;orthogonalLoop=1;jettySize=auto;html=1;exitX=0.5;exitY=1;exitDx=0;exitDy=0;entryX=0.5;entryY=0;entryDx=0;entryDy=0;" edge="1" parent="1" source="O2XYGsJC51HNCYNZoQb--50" target="O2XYGsJC51HNCYNZoQb--52">
          <mxGeometry relative="1" as="geometry" />
        </mxCell>
        <mxCell id="O2XYGsJC51HNCYNZoQb--50" value="&lt;font style=&quot;font-size: 16px;&quot;&gt;Характеристики&lt;/font&gt;" style="rounded=0;whiteSpace=wrap;html=1;movable=1;resizable=1;rotatable=1;deletable=1;editable=1;locked=0;connectable=1;" vertex="1" parent="1">
          <mxGeometry x="90" y="690" width="140" height="60" as="geometry" />
        </mxCell>
        <mxCell id="O2XYGsJC51HNCYNZoQb--56" style="edgeStyle=orthogonalEdgeStyle;rounded=0;orthogonalLoop=1;jettySize=auto;html=1;exitX=0.5;exitY=1;exitDx=0;exitDy=0;entryX=0.5;entryY=0;entryDx=0;entryDy=0;" edge="1" parent="1" source="O2XYGsJC51HNCYNZoQb--52" target="O2XYGsJC51HNCYNZoQb--55">
          <mxGeometry relative="1" as="geometry" />
        </mxCell>
        <mxCell id="O2XYGsJC51HNCYNZoQb--52" value="&lt;font style=&quot;font-size: 16px;&quot;&gt;Маркировка&lt;/font&gt;" style="rounded=0;whiteSpace=wrap;html=1;" vertex="1" parent="1">
          <mxGeometry x="68.75" y="900" width="182.5" height="30" as="geometry" />
        </mxCell>
        <mxCell id="O2XYGsJC51HNCYNZoQb--55" value="&lt;font style=&quot;font-size: 16px;&quot;&gt;Порядковый номер&lt;/font&gt;" style="rounded=0;whiteSpace=wrap;html=1;" vertex="1" parent="1">
          <mxGeometry x="70" y="950" width="180" height="30" as="geometry" />
        </mxCell>
        <mxCell id="O2XYGsJC51HNCYNZoQb--63" value="&lt;font style=&quot;font-size: 16px;&quot;&gt;Выбор несколькоих параметров (фильтр)&lt;/font&gt;" style="rounded=0;whiteSpace=wrap;html=1;fillColor=#f5f5f5;fontColor=#333333;strokeColor=#666666;" vertex="1" parent="1">
          <mxGeometry x="-190" y="740" width="230" height="60" as="geometry" />
        </mxCell>
        <mxCell id="O2XYGsJC51HNCYNZoQb--64" value="&lt;font style=&quot;font-size: 16px;&quot;&gt;Выбор одного параметра (фильтр)&lt;/font&gt;" style="rounded=0;whiteSpace=wrap;html=1;fillColor=#f5f5f5;fontColor=#333333;strokeColor=#666666;" vertex="1" parent="1">
          <mxGeometry x="-190" y="505" width="230" height="60" as="geometry" />
        </mxCell>
        <mxCell id="O2XYGsJC51HNCYNZoQb--65" value="&lt;font style=&quot;font-size: 16px;&quot;&gt;Выбор одного параметра (каталог)&lt;/font&gt;" style="rounded=0;whiteSpace=wrap;html=1;fillColor=#f5f5f5;fontColor=#333333;strokeColor=#666666;" vertex="1" parent="1">
          <mxGeometry x="-190" y="255" width="230" height="60" as="geometry" />
        </mxCell>
        <mxCell id="O2XYGsJC51HNCYNZoQb--68" value="..." style="whiteSpace=wrap;html=1;rounded=0;" vertex="1" parent="1">
          <mxGeometry x="500" y="-21.25" width="120" height="32.5" as="geometry" />
        </mxCell>
        <mxCell id="O2XYGsJC51HNCYNZoQb--72" value="..." style="whiteSpace=wrap;html=1;rounded=0;" vertex="1" parent="1">
          <mxGeometry x="500" y="18.75" width="120" height="32.5" as="geometry" />
        </mxCell>
        <mxCell id="O2XYGsJC51HNCYNZoQb--76" value="&lt;font style=&quot;font-size: 16px;&quot;&gt;Выбор одного параметра (каталог)&lt;/font&gt;" style="rounded=0;whiteSpace=wrap;html=1;fillColor=#f5f5f5;fontColor=#333333;strokeColor=#666666;" vertex="1" parent="1">
          <mxGeometry x="-190" y="15" width="230" height="60" as="geometry" />
        </mxCell>
        <mxCell id="O2XYGsJC51HNCYNZoQb--86" style="edgeStyle=orthogonalEdgeStyle;rounded=0;orthogonalLoop=1;jettySize=auto;html=1;exitX=0.5;exitY=1;exitDx=0;exitDy=0;" edge="1" parent="1" source="O2XYGsJC51HNCYNZoQb--83" target="O2XYGsJC51HNCYNZoQb--85">
          <mxGeometry relative="1" as="geometry" />
        </mxCell>
        <mxCell id="O2XYGsJC51HNCYNZoQb--83" value="&lt;font style=&quot;font-size: 16px;&quot;&gt;Токарный&lt;/font&gt;" style="rounded=0;whiteSpace=wrap;html=1;fillColor=#f5f5f5;fontColor=#333333;strokeColor=#666666;" vertex="1" parent="1">
          <mxGeometry x="790" y="21.25" width="140" height="30" as="geometry" />
        </mxCell>
        <mxCell id="O2XYGsJC51HNCYNZoQb--84" value="&lt;font style=&quot;font-size: 16px;&quot;&gt;выбор&lt;/font&gt;" style="rounded=0;whiteSpace=wrap;html=1;" vertex="1" parent="1">
          <mxGeometry x="790" y="-100" width="140" height="30" as="geometry" />
        </mxCell>
        <mxCell id="O2XYGsJC51HNCYNZoQb--89" style="edgeStyle=orthogonalEdgeStyle;rounded=0;orthogonalLoop=1;jettySize=auto;html=1;exitX=0.5;exitY=1;exitDx=0;exitDy=0;entryX=0.5;entryY=0;entryDx=0;entryDy=0;" edge="1" parent="1" source="O2XYGsJC51HNCYNZoQb--85" target="O2XYGsJC51HNCYNZoQb--88">
          <mxGeometry relative="1" as="geometry" />
        </mxCell>
        <mxCell id="O2XYGsJC51HNCYNZoQb--85" value="&lt;font style=&quot;font-size: 16px;&quot;&gt;Радиусная фреза&lt;/font&gt;" style="rounded=0;whiteSpace=wrap;html=1;fillColor=#f5f5f5;fontColor=#333333;strokeColor=#666666;" vertex="1" parent="1">
          <mxGeometry x="790" y="280" width="140" height="30" as="geometry" />
        </mxCell>
        <mxCell id="O2XYGsJC51HNCYNZoQb--94" style="edgeStyle=orthogonalEdgeStyle;rounded=0;orthogonalLoop=1;jettySize=auto;html=1;exitX=0.5;exitY=1;exitDx=0;exitDy=0;entryX=0.5;entryY=0;entryDx=0;entryDy=0;" edge="1" parent="1" source="O2XYGsJC51HNCYNZoQb--88" target="O2XYGsJC51HNCYNZoQb--90">
          <mxGeometry relative="1" as="geometry" />
        </mxCell>
        <mxCell id="O2XYGsJC51HNCYNZoQb--88" value="&lt;font style=&quot;font-size: 16px;&quot;&gt;Сталь&lt;/font&gt;" style="rounded=0;whiteSpace=wrap;html=1;fillColor=#f5f5f5;fontColor=#333333;strokeColor=#666666;" vertex="1" parent="1">
          <mxGeometry x="775" y="545" width="170" height="30" as="geometry" />
        </mxCell>
        <mxCell id="O2XYGsJC51HNCYNZoQb--90" value="&lt;font style=&quot;font-size: 16px;&quot;&gt;Номинальный диаметр&lt;/font&gt;" style="rounded=0;whiteSpace=wrap;html=1;fillColor=#f5f5f5;fontColor=#333333;strokeColor=#666666;" vertex="1" parent="1">
          <mxGeometry x="760" y="710" width="200" height="30" as="geometry" />
        </mxCell>
        <mxCell id="O2XYGsJC51HNCYNZoQb--98" style="edgeStyle=orthogonalEdgeStyle;rounded=0;orthogonalLoop=1;jettySize=auto;html=1;exitX=0.5;exitY=1;exitDx=0;exitDy=0;entryX=0.5;entryY=0;entryDx=0;entryDy=0;fillColor=#f5f5f5;strokeColor=#666666;" edge="1" parent="1" source="O2XYGsJC51HNCYNZoQb--91" target="O2XYGsJC51HNCYNZoQb--96">
          <mxGeometry relative="1" as="geometry" />
        </mxCell>
        <mxCell id="O2XYGsJC51HNCYNZoQb--91" value="&lt;font style=&quot;font-size: 16px;&quot;&gt;Длинна рабочей части&lt;/font&gt;" style="rounded=0;whiteSpace=wrap;html=1;fillColor=#f5f5f5;fontColor=#333333;strokeColor=#666666;" vertex="1" parent="1">
          <mxGeometry x="760" y="800" width="200" height="30" as="geometry" />
        </mxCell>
        <mxCell id="O2XYGsJC51HNCYNZoQb--92" value="&lt;font style=&quot;font-size: 16px;&quot;&gt;Общая длинна&lt;/font&gt;" style="rounded=0;whiteSpace=wrap;html=1;fillColor=#f5f5f5;fontColor=#333333;strokeColor=#666666;" vertex="1" parent="1">
          <mxGeometry x="760" y="770" width="200" height="30" as="geometry" />
        </mxCell>
        <mxCell id="O2XYGsJC51HNCYNZoQb--93" value="&lt;font style=&quot;font-size: 16px;&quot;&gt;Диаметр хвостовика&lt;/font&gt;" style="rounded=0;whiteSpace=wrap;html=1;fillColor=#f5f5f5;fontColor=#333333;strokeColor=#666666;" vertex="1" parent="1">
          <mxGeometry x="760" y="740" width="200" height="30" as="geometry" />
        </mxCell>
        <mxCell id="O2XYGsJC51HNCYNZoQb--95" style="edgeStyle=orthogonalEdgeStyle;rounded=0;orthogonalLoop=1;jettySize=auto;html=1;exitX=0.5;exitY=1;exitDx=0;exitDy=0;entryX=0.5;entryY=0;entryDx=0;entryDy=0;fillColor=#f5f5f5;strokeColor=#666666;" edge="1" parent="1" source="O2XYGsJC51HNCYNZoQb--96" target="O2XYGsJC51HNCYNZoQb--97">
          <mxGeometry relative="1" as="geometry" />
        </mxCell>
        <mxCell id="O2XYGsJC51HNCYNZoQb--96" value="&lt;font style=&quot;font-size: 16px;&quot;&gt;Маркировка&lt;/font&gt;" style="rounded=0;whiteSpace=wrap;html=1;fillColor=#f5f5f5;fontColor=#333333;strokeColor=#666666;" vertex="1" parent="1">
          <mxGeometry x="768.75" y="900" width="182.5" height="30" as="geometry" />
        </mxCell>
        <mxCell id="O2XYGsJC51HNCYNZoQb--97" value="&lt;font style=&quot;font-size: 16px;&quot;&gt;Порядковый номер&lt;/font&gt;" style="rounded=0;whiteSpace=wrap;html=1;fillColor=#f5f5f5;fontColor=#333333;strokeColor=#666666;" vertex="1" parent="1">
          <mxGeometry x="770" y="950" width="180" height="30" as="geometry" />
        </mxCell>
        <mxCell id="O2XYGsJC51HNCYNZoQb--100" value="Не ограниченая вложнность&amp;nbsp;" style="whiteSpace=wrap;html=1;rounded=0;" vertex="1" parent="1">
          <mxGeometry x="70" y="397.5" width="120" height="32.5" as="geometry" />
        </mxCell>
        <mxCell id="O2XYGsJC51HNCYNZoQb--101" value="..." style="whiteSpace=wrap;html=1;rounded=0;" vertex="1" parent="1">
          <mxGeometry x="655" y="370" width="120" height="32.5" as="geometry" />
        </mxCell>
      </root>
    </mxGraphModel>
  </diagram>
</mxfile>
